<svg aria-hidden="true" style="position: absolute; width: 0; height: 0; overflow: hidden;" version="1.1" xmlns="http://www.w3.org/2000/svg" xmlns:xlink="http://www.w3.org/1999/xlink">
<defs>
<symbol id="icon-caret-right" viewBox="0 0 31 32">
<path fill="#fff" style="fill: var(--color1, #fff)" d="M11.52 25.527l10.24-8.96-10.24-8.96v17.92z"></path>
</symbol>
<symbol id="icon-chevron-down" viewBox="0 0 31 32">
<path fill="#fff" style="fill: var(--color1, #fff)" d="M20.855 11.255l-5.495 5.495-5.495-5.495-1.81 1.81 7.305 7.305 7.305-7.305-1.81-1.81z"></path>
</symbol>
<symbol id="icon-chevron-up" viewBox="0 0 31 32">
<path fill="#fff" style="fill: var(--color1, #fff)" d="M8.055 18.935l1.81 1.81 5.495-5.495 5.495 5.495 1.81-1.81-7.305-7.305-7.305 7.305z"></path>
</symbol>
<symbol id="icon-Close" viewBox="0 0 32 32">
<path fill="#fff" style="fill: var(--color1, #fff)" d="M22.835 22.364l-0.471 0.471c-0.26 0.26-0.682 0.26-0.943 0l-5.421-5.421-5.421 5.421c-0.26 0.26-0.682 0.26-0.943 0l-0.471-0.471c-0.26-0.26-0.26-0.682 0-0.943l5.421-5.421-5.421-5.421c-0.26-0.26-0.26-0.682 0-0.943l0.471-0.471c0.26-0.26 0.682-0.26 0.943 0l5.421 5.421 5.421-5.421c0.26-0.26 0.683-0.26 0.943 0l0.471 0.471c0.26 0.26 0.26 0.682 0 0.943l-5.421 5.421 5.421 5.421c0.26 0.26 0.26 0.683 0 0.943z"></path>
</symbol>
<symbol id="icon-Dot" viewBox="0 0 32 32">
<path fill="#fff" style="fill: var(--color1, #fff)" d="M30.222 16.337c0 7.855-6.367 14.222-14.222 14.222s-14.222-6.367-14.222-14.222c0-7.855 6.367-14.222 14.222-14.222s14.222 6.367 14.222 14.222z"></path>
</symbol>
<symbol id="icon-Dot-gray" viewBox="0 0 32 32">
<path fill="#fff" style="fill: var(--color1, #fff)" opacity="0.2" d="M30.222 16.337c0 7.855-6.367 14.222-14.222 14.222s-14.222-6.367-14.222-14.222c0-7.855 6.367-14.222 14.222-14.222s14.222 6.367 14.222 14.222z"></path>
</symbol>
<symbol id="icon-down-arrow-alt" viewBox="0 0 31 32">
<path fill="#fff" style="fill: var(--color1, #fff)" d="M23.945 16.611l-1.81-1.81-5.495 5.495v-12.27h-2.56v12.27l-5.495-5.495-1.81 1.81 8.585 8.585 8.585-8.585z"></path>
</symbol>
<symbol id="icon-Facebook" viewBox="0 0 31 32">
<path fill="#fff" style="fill: var(--color1, #fff)" d="M28.16 16.51c0-7.112-5.731-12.878-12.8-12.878s-12.8 5.766-12.8 12.878c0 6.428 4.681 11.756 10.8 12.722v-8.999h-3.25v-3.723h3.25v-2.837c0-3.228 1.911-5.010 4.835-5.010 1.401 0 2.865 0.252 2.865 0.252v3.169h-1.614c-1.59 0-2.086 0.993-2.086 2.011v2.416h3.55l-0.567 3.723h-2.983v8.999c6.119-0.966 10.8-6.294 10.8-12.722z"></path>
</symbol>
<symbol id="icon-Instagram" viewBox="0 0 31 32">
<path fill="#fff" style="fill: var(--color1, #fff)" d="M20.48 4.912h-10.24c-3.535 0-6.4 2.865-6.4 6.4v10.24c0 3.535 2.865 6.4 6.4 6.4h10.24c3.535 0 6.4-2.865 6.4-6.4v-10.24c0-3.535-2.865-6.4-6.4-6.4zM24.64 21.552c-0.007 2.295-1.865 4.153-4.16 4.16h-10.24c-2.295-0.007-4.153-1.865-4.16-4.16v-10.24c0.007-2.295 1.865-4.153 4.16-4.16h10.24c2.295 0.007 4.153 1.865 4.16 4.16v10.24zM21.44 11.632c0.707 0 1.28-0.573 1.28-1.28s-0.573-1.28-1.28-1.28c-0.707 0-1.28 0.573-1.28 1.28s0.573 1.28 1.28 1.28zM15.36 10.672c-3.181 0-5.76 2.579-5.76 5.76s2.579 5.76 5.76 5.76c3.181 0 5.76-2.579 5.76-5.76 0.003-1.529-0.602-2.996-1.683-4.077s-2.548-1.687-4.077-1.683zM11.84 16.432c0 1.944 1.576 3.52 3.52 3.52s3.52-1.576 3.52-3.52c0-1.944-1.576-3.52-3.52-3.52s-3.52 1.576-3.52 3.52z"></path>
</symbol>
<symbol id="icon-left-arrow-alt" viewBox="0 0 31 32">
<path fill="#fff" style="fill: var(--color1, #fff)" d="M16.265 22.612l-5.495-5.495h12.27v-2.56h-12.27l5.495-5.495-1.81-1.81-8.585 8.585 8.585 8.585 1.81-1.81z"></path>
</symbol>
<symbol id="icon-logo" viewBox="0 0 73 32">
<path d="M13.472 6.854c0.258-0.030 0.558 0.028 0.807 0.104 0.563 0.172 1.022 0.54 1.293 1.064 0.282 0.538 0.337 1.167 0.15 1.745-0.236 0.713-0.743 1.071-1.377 1.401l0.007 2.080c0.453 0.138 0.893 0.295 1.304 0.533 0.945 0.548 1.591 1.471 1.862 2.522 0.286 1.102 0.123 2.272-0.453 3.254-0.529 0.89-1.371 1.548-2.38 1.8-1.318 0.329-2.436-0.028-3.569-0.701-0.501 0.535-0.995 1.077-1.484 1.624 0.218 0.515 0.29 1.055 0.145 1.602-0.141 0.535-0.516 0.993-0.996 1.264-0.537 0.304-1.149 0.36-1.739 0.191-0.585-0.167-1.076-0.53-1.362-1.074-0.281-0.535-0.305-1.162-0.123-1.733 0.207-0.649 0.63-1.049 1.224-1.346 0.639-0.25 1.167-0.168 1.791 0.057 0.52-0.547 1.009-1.121 1.534-1.663-0.577-1.131-0.764-2.095-0.464-3.342-0.653-0.305-1.283-0.66-1.937-0.966-0.349 0.363-0.776 0.613-1.277 0.697-0.598 0.101-1.229-0.062-1.72-0.413-0.487-0.353-0.807-0.89-0.886-1.486-0.081-0.578 0.072-1.215 0.442-1.671 0.382-0.47 0.974-0.754 1.572-0.817 0.588-0.057 1.175 0.122 1.63 0.498 0.582 0.487 0.75 1.093 0.82 1.816 0.619 0.38 1.329 0.673 1.974 1.012 0.84-0.993 1.454-1.306 2.678-1.683l0.001-2.064c-0.219-0.088-0.438-0.194-0.629-0.335-0.483-0.357-0.8-0.895-0.878-1.491-0.072-0.593 0.095-1.19 0.464-1.659 0.404-0.507 0.945-0.738 1.572-0.821zM16.17 17.123c-0.125-1.42-1.372-2.473-2.793-2.358-1.433 0.117-2.498 1.378-2.373 2.81s1.394 2.49 2.826 2.355c1.419-0.134 2.464-1.388 2.34-2.808z"></path>
<path d="M64.564 13.898c0.422 0.001 0.844 0.007 1.266 0.017l-0.002 2.231c0.325-0.253 0.679-0.441 1.091-0.502 0.556-0.084 1.123 0.060 1.572 0.399 0.542 0.409 0.826 1.099 0.908 1.758 0.104 0.835-0.092 1.639-0.607 2.305-0.342 0.33-0.753 0.561-1.226 0.639-0.695 0.114-1.245-0.129-1.787-0.533l-0.002 0.487-1.212-0.002-0.001-6.799zM66.734 16.821c-0.377 0.125-0.638 0.304-0.822 0.666-0.204 0.402-0.218 0.899-0.059 1.318 0.122 0.321 0.35 0.599 0.666 0.742 0.23 0.104 0.447 0.107 0.694 0.093 0.393-0.149 0.658-0.339 0.836-0.733 0.186-0.411 0.182-0.906 0.006-1.32-0.135-0.318-0.377-0.574-0.702-0.7-0.202-0.078-0.407-0.089-0.62-0.066z"></path>
<path d="M28.297 13.885c0.743 2.289 1.693 4.516 2.418 6.811l-1.369 0.002c-0.16-0.49-0.315-1.044-0.56-1.498-0.16-0.068-0.349-0.045-0.52-0.043-0.66 0.007-1.321 0.004-1.981-0.007-0.207 0.506-0.374 1.026-0.538 1.547l-1.394-0.001c0.728-2.285 1.597-4.541 2.383-6.808 0.52 0.011 1.042-0.001 1.562-0.003zM27.516 15.577c-0.288 0.819-0.556 1.65-0.872 2.459l1.002-0.001 0.778-0.009c-0.11-0.309-0.745-2.314-0.909-2.449z"></path>
<path d="M57.159 13.9l1.309 0.008c-0.018 1.578-0.004 3.159-0.004 4.737-0 0.651 0.066 1.363-0.007 2.006l-0.072 0.049h-1.227l-0.003-2.914c-0.981-0.027-1.969-0.003-2.95-0.002l0 2.917-1.317-0.003 0.005-6.796 1.312 0.003 0.001 2.779h2.955l-0.002-2.784z"></path>
<path d="M59.256 15.784c0.434 0.012 0.87 0.008 1.304 0.010-0.005 0.695-0.115 2.613 0.053 3.188 0.066 0.227 0.199 0.434 0.413 0.544 0.322 0.166 0.65 0.070 0.971-0.043 0.142-0.159 0.264-0.307 0.334-0.512 0.23-0.67 0.107-2.388 0.103-3.185 0.414 0.011 0.829 0.002 1.243 0-0.010 0.477-0.002 0.956-0.002 1.433l0.006 3.478c-0.407 0.006-0.814 0.003-1.22-0.009l-0.038-0.044c0.006-0.103 0.007-0.187-0.010-0.29-0.382 0.165-0.721 0.416-1.154 0.424-0.503 0.010-1.048-0.146-1.409-0.508-0.274-0.274-0.441-0.642-0.526-1.015-0.185-0.803-0.076-2.583-0.068-3.472z"></path>
<path d="M41.659 15.647c0.649-0.051 1.326-0.005 1.85 0.432 0.368 0.306 0.487 0.674 0.526 1.131l-1.173-0.001c-0.068-0.125-0.135-0.271-0.241-0.369-0.169-0.156-0.414-0.237-0.643-0.225-0.178 0.010-0.405 0.081-0.515 0.231-0.067 0.091-0.104 0.186-0.078 0.3 0.133 0.602 1.663 0.527 2.15 0.846 0.31 0.203 0.548 0.567 0.617 0.93 0.069 0.371-0.020 0.755-0.244 1.058-0.374 0.515-0.95 0.701-1.549 0.793-0.555 0.034-1.199-0.115-1.643-0.454-0.417-0.317-0.566-0.706-0.623-1.207 0.395 0.001 0.791-0.003 1.186-0.011 0.023 0.074 0.049 0.146 0.086 0.215 0.172 0.318 0.516 0.388 0.834 0.482 0.21-0.048 0.495-0.102 0.645-0.272 0.090-0.103 0.122-0.281 0.084-0.412-0.146-0.503-1.612-0.562-2.12-0.875-0.301-0.186-0.522-0.456-0.603-0.804-0.072-0.316-0.045-0.671 0.133-0.948 0.321-0.501 0.763-0.707 1.321-0.84z"></path>
<path d="M49.555 15.645c0.369-0.030 0.731-0.028 1.092 0.070 0.416 0.113 0.857 0.345 1.067 0.738 0.101 0.189 0.179 0.528 0.111 0.738-0.337 0.073-0.748 0.024-1.094 0.020-0.051-0.171-0.094-0.303-0.233-0.422-0.176-0.147-0.405-0.217-0.633-0.192-0.179 0.018-0.408 0.106-0.508 0.266-0.060 0.095-0.084 0.193-0.047 0.303 0.216 0.637 1.511 0.485 2.015 0.773 0.321 0.183 0.589 0.506 0.68 0.867 0.098 0.387 0.033 0.818-0.19 1.151-0.334 0.498-0.864 0.685-1.423 0.793-0.549 0.068-1.185-0.049-1.645-0.366-0.471-0.325-0.613-0.733-0.719-1.266l1.176-0.009c0.071 0.18 0.136 0.32 0.289 0.445 0.203 0.166 0.444 0.242 0.706 0.207 0.203-0.027 0.403-0.12 0.525-0.29 0.079-0.112 0.119-0.247 0.081-0.383-0.147-0.523-1.446-0.491-1.961-0.768-0.348-0.188-0.624-0.5-0.734-0.883-0.094-0.324-0.054-0.662 0.117-0.953 0.285-0.483 0.806-0.719 1.33-0.84z"></path>
<path d="M35.074 14.434c0.39 0.013 0.784 0.005 1.175 0.007-0.004 0.441 0.002 0.882 0.019 1.323l1.159 0.001-0.003 1.010-1.104-0c0 0.636-0.145 2.276 0.147 2.767 0.228 0.18 0.683 0.112 0.959 0.109l-0.004 0.837c0.003 0.086 0.002 0.13-0.042 0.205-0.154 0.074-0.312 0.091-0.483 0.092-0.448 0.004-1.067-0.077-1.39-0.413-0.647-0.674-0.441-2.657-0.437-3.598l-0.748 0.001 0.002-1.012 0.745 0.005 0.004-1.333z"></path>
<path d="M45.149 14.429l1.153 0.007c-0.009 0.442 0.010 0.885 0.018 1.327l1.178-0.002-0.002 1.015-1.108-0.001c0.013 0.605-0.135 2.295 0.139 2.753 0.295 0.176 0.664 0.129 0.995 0.128-0.004 0.291 0.002 0.584 0.003 0.876l-0.014 0.111c-0.114 0.121-0.29 0.115-0.445 0.119-0.474 0.011-1.128-0.064-1.471-0.423-0.641-0.671-0.441-2.626-0.436-3.564l-0.789 0c-0.010-0.336-0.006-0.673-0.009-1.009l0.786 0.004 0.002-1.341z"></path>
<path d="M20.278 13.674c0.061-0.003 0.119-0.004 0.18 0.005 0.188 0.027 0.374 0.118 0.478 0.284 0.11 0.176 0.125 0.409 0.14 0.613 0.075 1.006 0.019 2.053 0.019 3.063-0 0.825 0.091 1.943-0.062 2.737-0.048 0.25-0.214 0.369-0.412 0.504-0.076 0.009-0.155 0.020-0.231 0.015-0.17-0.010-0.331-0.085-0.441-0.215-0.109-0.128-0.106-0.386-0.115-0.548-0.069-1.158-0.011-2.352-0.010-3.513 0.001-0.66-0.090-1.923 0.049-2.512 0.050-0.211 0.239-0.321 0.405-0.433z"></path>
<path d="M33.645 15.746l0.166-0.002c0.196 0.22 0.099 0.915 0.093 1.203-0.415-0.004-0.807-0.021-1.132 0.281-0.61 0.566-0.404 2.638-0.41 3.47-0.327-0.003-0.964 0.116-1.213-0.091l-0.013-0.206c0.006-1.541-0.033-3.082-0.023-4.623 0.396 0.012 0.793 0.004 1.189 0.002l-0.014 0.681c0.073-0.105 0.146-0.218 0.232-0.314 0.3-0.338 0.707-0.369 1.127-0.399z"></path>
<path d="M38.148 15.766l1.243 0.001 0.003 4.933-1.258-0.002 0.011-4.932z"></path>
<path d="M18.541 15.29c0.204 0.038 0.385 0.114 0.504 0.292 0.183 0.274 0.189 2.954 0.097 3.336-0.050 0.209-0.231 0.311-0.403 0.412-0.197-0.012-0.455-0.029-0.586-0.2-0.195-0.253-0.179-3.102-0.068-3.459 0.065-0.207 0.278-0.295 0.456-0.381z"></path>
<path d="M38.687 13.734c0.369-0.043 0.707 0.215 0.761 0.583s-0.194 0.712-0.56 0.778c-0.247 0.044-0.498-0.050-0.655-0.245s-0.197-0.46-0.102-0.692c0.095-0.232 0.308-0.394 0.556-0.424z"></path>
</symbol>
<symbol id="icon-logo-lilac" viewBox="0 0 73 32">
<path d="M13.471 6.854c0.259-0.030 0.558 0.028 0.807 0.104 0.563 0.172 1.022 0.539 1.293 1.064 0.282 0.538 0.336 1.167 0.15 1.745-0.236 0.713-0.744 1.072-1.377 1.401l0.007 2.080c0.453 0.138 0.893 0.294 1.304 0.533 0.945 0.548 1.591 1.471 1.862 2.522 0.286 1.102 0.124 2.273-0.453 3.255-0.529 0.89-1.371 1.547-2.38 1.799-1.318 0.329-2.436-0.027-3.569-0.701-0.501 0.535-0.996 1.077-1.484 1.624 0.218 0.515 0.291 1.056 0.146 1.603-0.141 0.535-0.516 0.993-0.996 1.264-0.537 0.304-1.15 0.359-1.739 0.191-0.585-0.167-1.076-0.529-1.362-1.073-0.281-0.535-0.305-1.162-0.123-1.733 0.207-0.649 0.63-1.049 1.224-1.346 0.639-0.25 1.168-0.168 1.792 0.057 0.52-0.547 1.009-1.121 1.534-1.663-0.577-1.131-0.764-2.095-0.464-3.342-0.653-0.305-1.283-0.66-1.936-0.965-0.349 0.364-0.776 0.613-1.278 0.697-0.598 0.101-1.228-0.063-1.719-0.413-0.487-0.353-0.807-0.891-0.886-1.487-0.081-0.578 0.072-1.215 0.442-1.671 0.382-0.47 0.974-0.755 1.572-0.817 0.588-0.057 1.174 0.122 1.629 0.498 0.582 0.488 0.75 1.094 0.821 1.816 0.619 0.38 1.329 0.672 1.974 1.011 0.84-0.993 1.454-1.306 2.678-1.683l0.001-2.064c-0.219-0.088-0.438-0.194-0.629-0.335-0.483-0.357-0.8-0.895-0.879-1.491-0.072-0.592 0.095-1.189 0.465-1.658 0.404-0.507 0.945-0.738 1.572-0.821zM16.17 17.123c-0.125-1.42-1.373-2.473-2.793-2.358-1.433 0.117-2.498 1.378-2.372 2.81s1.393 2.49 2.825 2.355c1.419-0.134 2.465-1.388 2.34-2.808z"></path>
<path d="M64.564 13.898c0.422 0.001 0.844 0.006 1.266 0.017l-0.002 2.231c0.325-0.253 0.679-0.441 1.091-0.503 0.556-0.084 1.124 0.060 1.572 0.4 0.542 0.409 0.826 1.098 0.908 1.757 0.105 0.836-0.092 1.639-0.607 2.305-0.342 0.33-0.753 0.561-1.226 0.639-0.695 0.114-1.246-0.129-1.787-0.533l-0.002 0.487-1.212-0.002-0.001-6.798zM66.734 16.822c-0.376 0.125-0.639 0.303-0.822 0.666-0.204 0.402-0.218 0.899-0.058 1.319 0.121 0.321 0.349 0.599 0.666 0.742 0.23 0.104 0.447 0.107 0.695 0.093 0.393-0.149 0.657-0.339 0.835-0.733 0.186-0.411 0.182-0.906 0.006-1.32-0.135-0.318-0.376-0.574-0.701-0.7-0.203-0.078-0.407-0.089-0.621-0.066z"></path>
<path d="M28.297 13.885c0.743 2.289 1.693 4.516 2.418 6.812l-1.369 0.001c-0.16-0.49-0.315-1.044-0.56-1.498-0.16-0.068-0.349-0.045-0.52-0.043-0.66 0.007-1.321 0.005-1.981-0.007-0.207 0.506-0.374 1.026-0.538 1.547l-1.394-0.001c0.728-2.285 1.596-4.541 2.382-6.808 0.52 0.011 1.043-0.001 1.563-0.003zM27.516 15.577c-0.288 0.819-0.557 1.65-0.873 2.459l1.002-0.001 0.779-0.008c-0.109-0.308-0.745-2.314-0.909-2.45z"></path>
<path d="M57.159 13.9l1.309 0.008c-0.018 1.578-0.004 3.159-0.004 4.737-0 0.651 0.066 1.363-0.007 2.006l-0.072 0.049h-1.227l-0.003-2.914c-0.981-0.027-1.969-0.003-2.951-0.002l0 2.917-1.317-0.003 0.005-6.796 1.312 0.003 0.001 2.779h2.955l-0.002-2.784z"></path>
<path d="M59.255 15.784c0.434 0.012 0.87 0.008 1.304 0.010-0.005 0.695-0.115 2.613 0.053 3.188 0.066 0.227 0.199 0.434 0.413 0.544 0.322 0.166 0.65 0.070 0.97-0.043 0.142-0.159 0.264-0.307 0.334-0.512 0.23-0.67 0.107-2.388 0.104-3.185 0.414 0.011 0.829 0.002 1.243 0-0.010 0.477-0.002 0.956-0.003 1.433l0.007 3.478c-0.407 0.006-0.814 0.003-1.22-0.009l-0.038-0.044c0.006-0.103 0.007-0.187-0.011-0.29-0.381 0.165-0.721 0.416-1.154 0.424-0.503 0.010-1.048-0.146-1.409-0.508-0.274-0.274-0.441-0.642-0.526-1.015-0.185-0.803-0.076-2.583-0.068-3.472z"></path>
<path d="M41.659 15.647c0.649-0.051 1.326-0.005 1.85 0.432 0.368 0.306 0.487 0.674 0.526 1.131l-1.173-0.001c-0.068-0.125-0.135-0.271-0.241-0.369-0.169-0.156-0.414-0.237-0.643-0.225-0.178 0.010-0.405 0.081-0.515 0.231-0.067 0.091-0.104 0.186-0.078 0.3 0.133 0.602 1.663 0.527 2.15 0.846 0.31 0.203 0.548 0.567 0.617 0.93 0.069 0.371-0.020 0.755-0.243 1.058-0.374 0.515-0.95 0.701-1.549 0.793-0.555 0.034-1.199-0.115-1.643-0.454-0.416-0.317-0.566-0.706-0.623-1.207 0.395 0.001 0.791-0.003 1.186-0.011 0.023 0.075 0.049 0.146 0.086 0.215 0.172 0.318 0.516 0.388 0.834 0.482 0.21-0.048 0.495-0.102 0.645-0.272 0.090-0.103 0.122-0.281 0.084-0.412-0.146-0.503-1.612-0.562-2.12-0.875-0.301-0.186-0.522-0.456-0.603-0.804-0.072-0.316-0.045-0.671 0.133-0.948 0.321-0.501 0.763-0.707 1.321-0.84z"></path>
<path d="M49.555 15.645c0.369-0.030 0.731-0.028 1.092 0.070 0.416 0.113 0.857 0.345 1.067 0.738 0.101 0.189 0.179 0.528 0.111 0.738-0.337 0.073-0.748 0.024-1.094 0.020-0.051-0.171-0.094-0.303-0.233-0.422-0.176-0.147-0.405-0.217-0.633-0.192-0.179 0.018-0.408 0.106-0.508 0.266-0.060 0.095-0.084 0.193-0.047 0.303 0.216 0.637 1.511 0.485 2.015 0.773 0.321 0.183 0.589 0.506 0.68 0.867 0.098 0.387 0.033 0.818-0.19 1.151-0.334 0.498-0.864 0.685-1.423 0.793-0.549 0.068-1.185-0.049-1.645-0.366-0.471-0.325-0.613-0.733-0.719-1.266l1.176-0.009c0.071 0.18 0.136 0.32 0.289 0.445 0.203 0.166 0.444 0.242 0.706 0.207 0.203-0.027 0.403-0.12 0.525-0.29 0.079-0.112 0.119-0.247 0.081-0.383-0.147-0.523-1.446-0.491-1.961-0.768-0.348-0.188-0.624-0.5-0.734-0.883-0.094-0.324-0.054-0.662 0.117-0.953 0.285-0.483 0.806-0.719 1.33-0.84z"></path>
<path d="M35.074 14.434c0.39 0.013 0.784 0.005 1.175 0.007-0.004 0.441 0.002 0.882 0.019 1.323l1.159 0.001-0.003 1.010-1.104-0c0 0.636-0.145 2.276 0.147 2.767 0.228 0.18 0.683 0.112 0.959 0.109l-0.004 0.837c0.003 0.086 0.002 0.13-0.042 0.205-0.154 0.074-0.312 0.091-0.483 0.092-0.448 0.004-1.067-0.077-1.39-0.413-0.647-0.674-0.441-2.657-0.437-3.598l-0.748 0.001 0.002-1.012 0.745 0.005 0.004-1.333z"></path>
<path d="M45.149 14.429l1.153 0.007c-0.009 0.442 0.010 0.885 0.018 1.327l1.178-0.002-0.002 1.015-1.108-0.001c0.013 0.605-0.135 2.295 0.139 2.753 0.295 0.176 0.664 0.129 0.995 0.128-0.004 0.291 0.002 0.584 0.003 0.876l-0.014 0.111c-0.114 0.121-0.29 0.115-0.445 0.119-0.474 0.011-1.128-0.064-1.471-0.423-0.641-0.671-0.441-2.626-0.436-3.564l-0.789 0c-0.010-0.336-0.006-0.673-0.009-1.009l0.786 0.004 0.002-1.341z"></path>
<path d="M20.278 13.674c0.061-0.003 0.119-0.004 0.18 0.005 0.188 0.027 0.374 0.118 0.478 0.284 0.11 0.176 0.125 0.409 0.14 0.613 0.075 1.006 0.019 2.053 0.019 3.063-0 0.825 0.091 1.943-0.062 2.737-0.048 0.25-0.214 0.369-0.412 0.504-0.076 0.009-0.155 0.020-0.231 0.015-0.17-0.010-0.331-0.085-0.441-0.215-0.109-0.128-0.106-0.386-0.115-0.548-0.069-1.158-0.011-2.352-0.010-3.513 0.001-0.66-0.090-1.923 0.049-2.512 0.050-0.211 0.239-0.321 0.405-0.433z"></path>
<path d="M33.645 15.746l0.166-0.002c0.196 0.22 0.099 0.915 0.093 1.203-0.415-0.004-0.807-0.021-1.132 0.281-0.61 0.566-0.404 2.638-0.41 3.47-0.327-0.003-0.964 0.116-1.213-0.091l-0.013-0.206c0.006-1.541-0.033-3.082-0.023-4.623 0.396 0.012 0.793 0.004 1.189 0.002l-0.014 0.681c0.073-0.105 0.146-0.218 0.232-0.314 0.3-0.338 0.707-0.369 1.127-0.399z"></path>
<path d="M38.148 15.766l1.243 0.001 0.003 4.933-1.258-0.002 0.011-4.932z"></path>
<path d="M18.54 15.29c0.204 0.038 0.385 0.114 0.504 0.292 0.183 0.274 0.188 2.954 0.096 3.336-0.050 0.209-0.231 0.311-0.403 0.412-0.197-0.012-0.455-0.029-0.586-0.2-0.195-0.253-0.179-3.102-0.068-3.459 0.065-0.208 0.278-0.295 0.456-0.381z"></path>
<path d="M38.687 13.734c0.369-0.043 0.707 0.215 0.761 0.583s-0.194 0.712-0.56 0.778c-0.247 0.044-0.498-0.050-0.655-0.245s-0.197-0.46-0.102-0.692c0.095-0.232 0.308-0.394 0.556-0.424z"></path>
</symbol>
<symbol id="icon-logo-small" viewBox="0 0 32 32">
<path fill="#fff" style="fill: var(--color1, #fff)" d="M17.284 3.195c0.38-0.041 0.819 0.039 1.185 0.142 0.827 0.235 1.5 0.737 1.898 1.455 0.415 0.736 0.494 1.596 0.221 2.387-0.347 0.976-1.092 1.466-2.022 1.917l0.010 2.846c0.665 0.189 1.311 0.403 1.915 0.728 1.387 0.749 2.336 2.013 2.733 3.45 0.42 1.507 0.181 3.108-0.665 4.452-0.776 1.218-2.014 2.117-3.495 2.462-1.935 0.451-3.576-0.038-5.24-0.959-0.735 0.732-1.462 1.473-2.179 2.222 0.32 0.704 0.427 1.444 0.214 2.192-0.208 0.732-0.758 1.359-1.462 1.73-0.789 0.416-1.688 0.492-2.552 0.261-0.858-0.229-1.58-0.724-1.999-1.468-0.413-0.732-0.448-1.59-0.18-2.371 0.305-0.888 0.925-1.435 1.797-1.841 0.939-0.342 1.715-0.23 2.631 0.078 0.763-0.748 1.481-1.533 2.252-2.275-0.847-1.548-1.121-2.866-0.681-4.572-0.959-0.417-1.884-0.903-2.843-1.321-0.513 0.497-1.139 0.838-1.875 0.954-0.878 0.138-1.803-0.085-2.525-0.566-0.715-0.483-1.185-1.218-1.301-2.033-0.119-0.791 0.105-1.662 0.648-2.286 0.56-0.644 1.43-1.032 2.309-1.118 0.863-0.078 1.724 0.167 2.392 0.681 0.855 0.667 1.101 1.496 1.205 2.484 0.909 0.52 1.951 0.92 2.899 1.384 1.233-1.358 2.134-1.786 3.931-2.303l0.002-2.824c-0.322-0.12-0.643-0.266-0.923-0.458-0.709-0.489-1.175-1.225-1.29-2.040-0.106-0.811 0.139-1.627 0.682-2.268 0.594-0.694 1.387-1.010 2.307-1.123zM21.246 17.242c-0.183-1.943-2.014-3.383-4.1-3.225-2.104 0.16-3.667 1.885-3.483 3.845s2.046 3.405 4.148 3.221c2.083-0.183 3.618-1.898 3.435-3.841z"></path>
<path fill="#fff" style="fill: var(--color1, #fff)" d="M27.276 12.524c0.089-0.004 0.175-0.005 0.264 0.007 0.277 0.037 0.549 0.162 0.702 0.388 0.162 0.24 0.184 0.56 0.206 0.838 0.11 1.377 0.028 2.809 0.028 4.19-0 1.128 0.134 2.658-0.091 3.745-0.071 0.341-0.314 0.505-0.605 0.69-0.111 0.013-0.227 0.027-0.339 0.021-0.25-0.013-0.486-0.117-0.648-0.294-0.16-0.176-0.155-0.529-0.169-0.749-0.102-1.584-0.016-3.218-0.014-4.806 0.001-0.903-0.132-2.63 0.071-3.436 0.073-0.288 0.352-0.439 0.595-0.593z"></path>
<path fill="#fff" style="fill: var(--color1, #fff)" d="M24.726 14.736c0.3 0.051 0.565 0.156 0.74 0.399 0.269 0.374 0.277 4.041 0.142 4.564-0.074 0.286-0.339 0.426-0.591 0.563-0.288-0.016-0.668-0.040-0.86-0.273-0.287-0.346-0.263-4.243-0.1-4.732 0.095-0.284 0.408-0.404 0.67-0.522z"></path>
</symbol>
<symbol id="icon-menu-btn" viewBox="0 0 32 32">
<path fill="#fff" style="fill: var(--color1, #fff)" d="M5.333 8h21.333v2.667h-21.333v-2.667zM10.667 14.667h16v2.667h-16v-2.667zM17.333 21.333h9.333v2.667h-9.333v-2.667z"></path>
</symbol>
<symbol id="icon-right-arrow" viewBox="0 0 32 32">
<path fill="#fff" style="fill: var(--color1, #fff)" d="M7.381 29.181c0.216 0.112 0.458 0.164 0.701 0.149s0.477-0.096 0.677-0.234l17.333-12c0.177-0.123 0.322-0.287 0.422-0.477s0.152-0.403 0.152-0.619-0.052-0.428-0.152-0.619c-0.1-0.191-0.245-0.355-0.422-0.477l-17.333-12c-0.2-0.139-0.434-0.221-0.677-0.237s-0.486 0.036-0.702 0.149c-0.216 0.113-0.396 0.283-0.522 0.492s-0.192 0.448-0.191 0.691v24c-0 0.243 0.067 0.482 0.192 0.69s0.307 0.378 0.522 0.491zM9.333 6.545l13.657 9.455-13.657 9.455v-18.909z"></path>
</symbol>
<symbol id="icon-right-arrow-alt" viewBox="0 0 31 32">
<path fill="#fff" style="fill: var(--color1, #fff)" d="M14.455 22.612l1.81 1.81 8.585-8.585-8.585-8.585-1.81 1.81 5.495 5.495h-12.27v2.56h12.27l-5.495 5.495z"></path>
</symbol>
<symbol id="icon-search" viewBox="0 0 32 32">
<path fill="#fff" style="fill: var(--color1, #fff)" d="M13.333 24c2.367-0.001 4.665-0.793 6.529-2.251l5.861 5.861 1.885-1.885-5.861-5.861c1.459-1.864 2.251-4.163 2.252-6.531 0-5.881-4.785-10.667-10.667-10.667s-10.667 4.785-10.667 10.667c0 5.881 4.785 10.667 10.667 10.667zM13.333 5.333c4.412 0 8 3.588 8 8s-3.588 8-8 8c-4.412 0-8-3.588-8-8s3.588-8 8-8z"></path>
</symbol>
<symbol id="icon-Star" viewBox="0 0 32 32">
<path fill="#fff" style="fill: var(--color1, #fff)" d="M14.513 2.109c0.55-1.306 2.423-1.306 2.973 0l3.246 7.71c0.232 0.551 0.756 0.927 1.358 0.975l8.426 0.667c1.428 0.113 2.006 1.873 0.919 2.793l-6.419 5.432c-0.458 0.388-0.659 0.997-0.519 1.577l1.961 8.123c0.332 1.376-1.183 2.464-2.405 1.727l-7.213-4.353c-0.515-0.311-1.163-0.311-1.679 0l-7.214 4.353c-1.222 0.737-2.738-0.35-2.405-1.727l1.961-8.123c0.14-0.58-0.060-1.189-0.519-1.577l-6.42-5.432c-1.088-0.92-0.509-2.68 0.919-2.793l8.426-0.667c0.602-0.048 1.126-0.424 1.358-0.975l3.246-7.71z"></path>
</symbol>
<symbol id="icon-Star-lilac" viewBox="0 0 32 32">
<path fill="#764191" style="fill: var(--color2, #764191)" d="M14.513 2.109c0.55-1.306 2.423-1.306 2.973 0l3.246 7.71c0.232 0.551 0.756 0.927 1.358 0.975l8.426 0.667c1.428 0.113 2.006 1.873 0.919 2.793l-6.419 5.432c-0.459 0.388-0.659 0.997-0.519 1.577l1.961 8.123c0.332 1.376-1.183 2.464-2.405 1.727l-7.214-4.353c-0.515-0.311-1.163-0.311-1.678 0l-7.214 4.353c-1.222 0.737-2.738-0.35-2.405-1.727l1.961-8.123c0.14-0.58-0.060-1.189-0.519-1.577l-6.42-5.432c-1.088-0.92-0.509-2.68 0.919-2.793l8.426-0.667c0.602-0.048 1.126-0.424 1.358-0.975l3.246-7.71z"></path>
</symbol>
<symbol id="icon-Youtube" viewBox="0 0 31 32">
<path fill="#fff" style="fill: var(--color1, #fff)" d="M27.639 9.981c-0.146-0.541-0.431-1.034-0.826-1.431s-0.888-0.683-1.429-0.83c-2.004-0.55-10.024-0.559-10.024-0.559s-8.018-0.009-10.024 0.517c-0.54 0.154-1.032 0.444-1.428 0.842s-0.683 0.892-0.833 1.433c-0.529 2.004-0.534 6.162-0.534 6.162s-0.005 4.178 0.52 6.162c0.294 1.097 1.158 1.964 2.257 2.259 2.025 0.55 10.022 0.559 10.022 0.559s8.019 0.009 10.024-0.516c0.541-0.147 1.034-0.432 1.431-0.828s0.683-0.888 0.831-1.429c0.53-2.003 0.534-6.159 0.534-6.159s0.026-4.179-0.521-6.184zM12.795 19.968l0.006-7.68 6.665 3.846-6.671 3.834z"></path>
</symbol>
</defs>
</svg>
