<svg aria-hidden="true" style="position: absolute; width: 0; height: 0; overflow: hidden;" version="1.1" xmlns="http://www.w3.org/2000/svg" xmlns:xlink="http://www.w3.org/1999/xlink">
    <defs>
        <symbol id="icon-logo-mini" viewBox="0 0 73 32">
            <path fill="#764191" style="fill: var(--color1, #764191)" d="M18.933 9.969c0.363-0.042 0.784 0.039 1.134 0.146 0.792 0.241 1.436 0.758 1.818 1.495 0.397 0.756 0.473 1.64 0.211 2.453-0.332 1.002-1.046 1.506-1.936 1.97l0.010 2.923c0.636 0.194 1.255 0.414 1.833 0.748 1.328 0.77 2.236 2.067 2.617 3.544 0.402 1.548 0.174 3.194-0.636 4.574-0.743 1.251-1.927 2.175-3.345 2.529-1.853 0.463-3.424-0.038-5.016-0.985-0.704 0.752-1.399 1.513-2.085 2.282 0.307 0.724 0.409 1.483 0.205 2.253-0.199 0.752-0.726 1.396-1.399 1.777-0.755 0.427-1.616 0.505-2.443 0.268-0.822-0.235-1.512-0.744-1.914-1.508-0.395-0.752-0.429-1.633-0.172-2.436 0.291-0.912 0.885-1.474 1.72-1.891 0.899-0.351 1.641-0.236 2.519 0.080 0.73-0.768 1.418-1.576 2.155-2.338-0.811-1.59-1.074-2.945-0.652-4.697-0.918-0.428-1.803-0.927-2.721-1.356-0.491 0.511-1.091 0.861-1.796 0.98-0.84 0.141-1.726-0.088-2.416-0.581-0.684-0.496-1.134-1.252-1.245-2.090-0.113-0.812 0.101-1.707 0.621-2.348 0.536-0.661 1.369-1.061 2.209-1.149 0.826-0.080 1.65 0.172 2.29 0.7 0.818 0.685 1.055 1.537 1.154 2.552 0.87 0.534 1.867 0.945 2.774 1.421 1.18-1.395 2.043-1.835 3.764-2.366l0.001-2.901c-0.308-0.123-0.615-0.273-0.883-0.47-0.679-0.502-1.125-1.258-1.235-2.095-0.102-0.833 0.134-1.672 0.654-2.33 0.568-0.713 1.328-1.037 2.209-1.154zM22.726 24.401c-0.175-1.996-1.929-3.476-3.926-3.313-2.014 0.164-3.51 1.936-3.334 3.949s1.958 3.499 3.97 3.31c1.994-0.188 3.464-1.95 3.289-3.946z"></path>
            <path fill="#764191" style="fill: var(--color1, #764191)" d="M39.769 19.85c1.044 3.217 2.38 6.347 3.398 9.573l-1.924 0.002c-0.225-0.689-0.443-1.468-0.787-2.105-0.225-0.096-0.491-0.064-0.731-0.061-0.928 0.009-1.856 0.007-2.784-0.009-0.291 0.711-0.526 1.442-0.757 2.174l-1.959-0.002c1.023-3.212 2.243-6.382 3.348-9.568 0.731 0.016 1.466-0.001 2.197-0.004zM38.671 22.229c-0.405 1.152-0.783 2.319-1.226 3.456l1.409-0.001 1.095-0.012c-0.154-0.433-1.047-3.252-1.277-3.443z"></path>
            <path fill="#764191" style="fill: var(--color1, #764191)" d="M58.548 22.326c0.912-0.071 1.863-0.007 2.601 0.608 0.517 0.43 0.684 0.947 0.74 1.589l-1.649-0.002c-0.095-0.176-0.19-0.381-0.339-0.519-0.238-0.219-0.582-0.333-0.903-0.316-0.25 0.014-0.569 0.113-0.724 0.325-0.094 0.129-0.146 0.261-0.11 0.421 0.187 0.846 2.337 0.741 3.022 1.189 0.435 0.285 0.77 0.797 0.866 1.307 0.097 0.522-0.028 1.061-0.342 1.487-0.525 0.724-1.335 0.985-2.177 1.114-0.78 0.047-1.684-0.162-2.309-0.637-0.585-0.446-0.796-0.993-0.876-1.697 0.555 0.001 1.111-0.004 1.667-0.015 0.033 0.105 0.069 0.206 0.121 0.303 0.242 0.446 0.725 0.546 1.173 0.677 0.296-0.068 0.696-0.144 0.906-0.383 0.127-0.145 0.171-0.395 0.118-0.579-0.205-0.707-2.265-0.79-2.98-1.23-0.423-0.261-0.734-0.64-0.847-1.13-0.102-0.444-0.063-0.943 0.187-1.332 0.451-0.704 1.073-0.993 1.857-1.18z"></path>
            <path fill="#764191" style="fill: var(--color1, #764191)" d="M69.644 22.324c0.519-0.042 1.028-0.039 1.534 0.098 0.584 0.158 1.204 0.484 1.5 1.038 0.142 0.265 0.251 0.742 0.156 1.037-0.473 0.102-1.051 0.033-1.538 0.028-0.072-0.241-0.132-0.426-0.328-0.593-0.247-0.207-0.569-0.305-0.89-0.27-0.251 0.026-0.574 0.149-0.714 0.374-0.084 0.134-0.118 0.272-0.065 0.426 0.304 0.895 2.124 0.682 2.832 1.086 0.451 0.258 0.828 0.711 0.956 1.218 0.138 0.544 0.047 1.149-0.268 1.618-0.469 0.699-1.214 0.962-2 1.115-0.772 0.096-1.666-0.069-2.312-0.514-0.662-0.457-0.862-1.030-1.010-1.779l1.653-0.012c0.1 0.253 0.192 0.45 0.406 0.625 0.285 0.234 0.624 0.34 0.992 0.291 0.285-0.038 0.566-0.169 0.737-0.408 0.111-0.157 0.167-0.347 0.114-0.538-0.207-0.735-2.032-0.689-2.757-1.080-0.489-0.264-0.877-0.702-1.032-1.241-0.132-0.456-0.077-0.93 0.164-1.34 0.4-0.679 1.133-1.010 1.869-1.18z"></path>
            <path fill="#764191" style="fill: var(--color1, #764191)" d="M49.294 20.622c0.549 0.019 1.102 0.007 1.651 0.010-0.006 0.62 0.003 1.24 0.027 1.859l1.629 0.001-0.004 1.42-1.551-0.001c0.001 0.893-0.204 3.198 0.206 3.888 0.32 0.252 0.959 0.158 1.348 0.154l-0.006 1.176c0.004 0.121 0.003 0.183-0.059 0.288-0.217 0.104-0.439 0.127-0.678 0.129-0.63 0.005-1.5-0.108-1.953-0.581-0.91-0.947-0.619-3.735-0.615-5.057l-1.051 0.002 0.003-1.423 1.047 0.007 0.005-1.873z"></path>
            <path fill="#764191" style="fill: var(--color1, #764191)" d="M63.453 20.614l1.62 0.009c-0.012 0.621 0.013 1.244 0.025 1.865l1.655-0.003-0.002 1.426-1.558-0.001c0.019 0.851-0.189 3.226 0.196 3.869 0.414 0.247 0.933 0.181 1.398 0.18-0.006 0.41 0.002 0.82 0.004 1.231l-0.020 0.155c-0.16 0.17-0.407 0.162-0.626 0.168-0.666 0.016-1.585-0.089-2.067-0.595-0.901-0.943-0.62-3.691-0.612-5.009l-1.108 0.001c-0.014-0.472-0.009-0.946-0.012-1.418l1.104 0.006 0.003-1.884z"></path>
            <path fill="#764191" style="fill: var(--color1, #764191)" d="M28.498 19.553c0.085-0.004 0.168-0.005 0.253 0.007 0.265 0.038 0.526 0.166 0.672 0.399 0.155 0.247 0.176 0.575 0.197 0.861 0.105 1.414 0.027 2.886 0.027 4.305-0 1.159 0.128 2.731-0.087 3.847-0.068 0.351-0.3 0.519-0.579 0.709-0.106 0.013-0.217 0.027-0.324 0.021-0.239-0.013-0.466-0.12-0.62-0.302-0.153-0.181-0.148-0.543-0.162-0.77-0.097-1.627-0.015-3.306-0.014-4.938 0.001-0.927-0.127-2.702 0.068-3.53 0.070-0.296 0.337-0.451 0.57-0.609z"></path>
            <path fill="#764191" style="fill: var(--color1, #764191)" d="M47.285 22.466l0.233-0.003c0.276 0.308 0.139 1.286 0.13 1.691-0.583-0.006-1.135-0.029-1.591 0.394-0.857 0.795-0.568 3.708-0.577 4.876-0.459-0.004-1.354 0.164-1.705-0.129l-0.018-0.29c0.008-2.166-0.046-4.331-0.032-6.497 0.556 0.017 1.114 0.005 1.671 0.003l-0.020 0.957c0.103-0.148 0.206-0.307 0.325-0.442 0.422-0.476 0.994-0.519 1.584-0.561z"></path>
            <path fill="#764191" style="fill: var(--color1, #764191)" d="M53.613 22.495l1.748 0.001 0.004 6.933-1.768-0.003 0.016-6.931z"></path>
            <path fill="#764191" style="fill: var(--color1, #764191)" d="M26.057 21.825c0.287 0.053 0.541 0.161 0.708 0.41 0.258 0.384 0.265 4.151 0.136 4.689-0.071 0.294-0.325 0.437-0.566 0.579-0.276-0.017-0.639-0.041-0.823-0.28-0.274-0.356-0.252-4.359-0.095-4.861 0.091-0.292 0.391-0.415 0.641-0.536z"></path>
            <path fill="#764191" style="fill: var(--color1, #764191)" d="M54.371 19.638c0.519-0.061 0.993 0.302 1.069 0.819s-0.272 1.001-0.787 1.093c-0.347 0.062-0.7-0.070-0.921-0.344s-0.276-0.646-0.143-0.973c0.133-0.326 0.432-0.554 0.782-0.595z"></path>
        </symbol>
        <symbol id="icon-caret-right" viewBox="0 0 31 32">
            <path fill="#fff" style="fill: var(--color1, #fff)" d="M11.52 25.527l10.24-8.96-10.24-8.96v17.92z"></path>
        </symbol>
        <symbol id="icon-chevron-down" viewBox="0 0 31 32">
            <path fill="#fff" style="fill: var(--color1, #fff)" d="M20.855 11.255l-5.495 5.495-5.495-5.495-1.81 1.81 7.305 7.305 7.305-7.305-1.81-1.81z"></path>
        </symbol>
        <symbol id="icon-chevron-up" viewBox="0 0 31 32">
            <path fill="#fff" style="fill: var(--color1, #fff)" d="M8.055 18.935l1.81 1.81 5.495-5.495 5.495 5.495 1.81-1.81-7.305-7.305-7.305 7.305z"></path>
        </symbol>
        <symbol id="icon-Close" viewBox="0 0 32 32">
            <path fill="#fff" style="fill: var(--color1, #fff)" d="M22.835 22.364l-0.471 0.471c-0.26 0.26-0.682 0.26-0.943 0l-5.421-5.421-5.421 5.421c-0.26 0.26-0.682 0.26-0.943 0l-0.471-0.471c-0.26-0.26-0.26-0.682 0-0.943l5.421-5.421-5.421-5.421c-0.26-0.26-0.26-0.682 0-0.943l0.471-0.471c0.26-0.26 0.682-0.26 0.943 0l5.421 5.421 5.421-5.421c0.26-0.26 0.683-0.26 0.943 0l0.471 0.471c0.26 0.26 0.26 0.682 0 0.943l-5.421 5.421 5.421 5.421c0.26 0.26 0.26 0.683 0 0.943z"></path>
        </symbol>
        <symbol id="icon-Dot" viewBox="0 0 32 32">
            <path fill="#fff" style="fill: var(--color1, #fff)" d="M30.222 16.337c0 7.855-6.367 14.222-14.222 14.222s-14.222-6.367-14.222-14.222c0-7.855 6.367-14.222 14.222-14.222s14.222 6.367 14.222 14.222z"></path>
        </symbol>
        <symbol id="icon-Dot-gray" viewBox="0 0 32 32">
            <path fill="#fff" style="fill: var(--color1, #fff)" opacity="0.2" d="M30.222 16.337c0 7.855-6.367 14.222-14.222 14.222s-14.222-6.367-14.222-14.222c0-7.855 6.367-14.222 14.222-14.222s14.222 6.367 14.222 14.222z"></path>
        </symbol>
        <symbol id="icon-down-arrow-alt" viewBox="0 0 31 32">
            <path fill="#fff" style="fill: var(--color1, #fff)" d="M23.945 16.611l-1.81-1.81-5.495 5.495v-12.27h-2.56v12.27l-5.495-5.495-1.81 1.81 8.585 8.585 8.585-8.585z"></path>
        </symbol>
        <symbol id="icon-Facebook" viewBox="0 0 31 32">
            <path fill="#fff" style="fill: var(--color1, #fff)" d="M28.16 16.51c0-7.112-5.731-12.878-12.8-12.878s-12.8 5.766-12.8 12.878c0 6.428 4.681 11.756 10.8 12.722v-8.999h-3.25v-3.723h3.25v-2.837c0-3.228 1.911-5.010 4.835-5.010 1.401 0 2.865 0.252 2.865 0.252v3.169h-1.614c-1.59 0-2.086 0.993-2.086 2.011v2.416h3.55l-0.567 3.723h-2.983v8.999c6.119-0.966 10.8-6.294 10.8-12.722z"></path>
        </symbol>
        <symbol id="icon-Instagram" viewBox="0 0 31 32">
            <path fill="#fff" style="fill: var(--color1, #fff)" d="M20.48 4.912h-10.24c-3.535 0-6.4 2.865-6.4 6.4v10.24c0 3.535 2.865 6.4 6.4 6.4h10.24c3.535 0 6.4-2.865 6.4-6.4v-10.24c0-3.535-2.865-6.4-6.4-6.4zM24.64 21.552c-0.007 2.295-1.865 4.153-4.16 4.16h-10.24c-2.295-0.007-4.153-1.865-4.16-4.16v-10.24c0.007-2.295 1.865-4.153 4.16-4.16h10.24c2.295 0.007 4.153 1.865 4.16 4.16v10.24zM21.44 11.632c0.707 0 1.28-0.573 1.28-1.28s-0.573-1.28-1.28-1.28c-0.707 0-1.28 0.573-1.28 1.28s0.573 1.28 1.28 1.28zM15.36 10.672c-3.181 0-5.76 2.579-5.76 5.76s2.579 5.76 5.76 5.76c3.181 0 5.76-2.579 5.76-5.76 0.003-1.529-0.602-2.996-1.683-4.077s-2.548-1.687-4.077-1.683zM11.84 16.432c0 1.944 1.576 3.52 3.52 3.52s3.52-1.576 3.52-3.52c0-1.944-1.576-3.52-3.52-3.52s-3.52 1.576-3.52 3.52z"></path>
        </symbol>
        <symbol id="icon-Instagram-new" viewBox="0 0 31 32">
            <path fill="white" d="M20.813 4.912h-10.407c-3.592 0-6.504 2.912-6.504 6.504v10.406c0 3.592 2.912 6.504 6.504 6.504h10.407c3.592 0 6.504-2.912 6.504-6.504v-10.406c0-3.592-2.912-6.504-6.504-6.504zM25.041 21.822c-0.007 2.332-1.896 4.221-4.228 4.228h-10.407c-2.332-0.007-4.22-1.896-4.228-4.228v-10.406c0.007-2.332 1.896-4.221 4.228-4.228h10.407c2.332 0.007 4.221 1.896 4.228 4.228v10.406zM21.789 11.741c0.718 0 1.301-0.582 1.301-1.301s-0.582-1.301-1.301-1.301c-0.718 0-1.301 0.582-1.301 1.301s0.582 1.301 1.301 1.301zM15.61 10.765c-3.233 0-5.854 2.621-5.854 5.854s2.621 5.854 5.854 5.854c3.233 0 5.854-2.621 5.854-5.854 0-1.554-0.612-3.044-1.711-4.143s-2.589-1.714-4.143-1.711z"/>
            <path fill="black" d="M12.033 16.619c0 1.976 1.602 3.577 3.577 3.577s3.577-1.602 3.577-3.577c0-1.976-1.602-3.577-3.577-3.577s-3.577 1.602-3.577 3.577z"/>
        </symbol>
        <symbol id="icon-left-arrow-alt" viewBox="0 0 31 32">
            <path fill="#fff" style="fill: var(--color1, #fff)" d="M16.265 22.612l-5.495-5.495h12.27v-2.56h-12.27l5.495-5.495-1.81-1.81-8.585 8.585 8.585 8.585 1.81-1.81z"></path>
        </symbol>
        <symbol id="icon-logo" viewBox="0 0 110 32">
            <path fill="#fff" style="fill: var(--color1, #fff)" d="M16.404 0.142c0.434-0.050 0.936 0.047 1.354 0.174 0.945 0.288 1.713 0.905 2.169 1.785 0.474 0.902 0.564 1.957 0.252 2.927-0.397 1.196-1.247 1.797-2.309 2.35l0.012 3.489c0.759 0.231 1.498 0.495 2.187 0.894 1.584 0.919 2.669 2.467 3.123 4.23 0.48 1.848 0.206 3.812-0.76 5.459-0.887 1.493-2.3 2.597-3.993 3.019-2.211 0.552-4.086-0.047-5.986-1.176-0.84 0.898-1.67 1.807-2.489 2.725 0.366 0.864 0.487 1.77 0.244 2.687-0.237 0.897-0.866 1.666-1.67 2.121-0.901 0.51-1.928 0.603-2.916 0.321-0.981-0.281-1.805-0.889-2.284-1.801-0.472-0.897-0.511-1.949-0.206-2.907 0.348-1.089 1.057-1.759 2.053-2.257 1.072-0.419 1.958-0.281 3.005 0.096 0.872-0.917 1.693-1.88 2.574-2.789-0.968-1.898-1.281-3.515-0.778-5.606-1.096-0.511-2.153-1.108-3.249-1.62-0.586 0.61-1.301 1.028-2.142 1.169-1.003 0.169-2.061-0.105-2.885-0.694-0.817-0.592-1.354-1.493-1.486-2.493-0.135-0.97 0.12-2.038 0.741-2.803 0.64-0.789 1.634-1.265 2.637-1.37 0.986-0.096 1.97 0.205 2.734 0.836 0.976 0.818 1.258 1.834 1.376 3.045 1.039 0.637 2.229 1.129 3.311 1.698 1.409-1.665 2.439-2.191 4.492-2.824l0.002-3.463c-0.368-0.147-0.735-0.326-1.055-0.561-0.81-0.599-1.341-1.502-1.473-2.501-0.121-0.994 0.159-1.996 0.779-2.782 0.678-0.851 1.585-1.238 2.636-1.377zM20.931 17.367c-0.209-2.382-2.302-4.148-4.684-3.955-2.404 0.196-4.19 2.311-3.98 4.714 0.211 2.404 2.338 4.176 4.74 3.951 2.381-0.224 4.133-2.328 3.924-4.71z"></path>
            <path fill="#fff" style="fill: var(--color1, #fff)" d="M102.107 11.958c0.708 0.001 1.416 0.011 2.124 0.029l-0.003 3.742c0.545-0.424 1.14-0.74 1.83-0.843 0.933-0.141 1.884 0.1 2.636 0.669 0.908 0.687 1.385 1.844 1.524 2.949 0.174 1.401-0.154 2.749-1.019 3.866-0.573 0.554-1.263 0.941-2.057 1.072-1.165 0.191-2.089-0.216-2.998-0.894l-0.004 0.817-2.032-0.003-0.001-11.404zM105.748 16.862c-0.632 0.21-1.070 0.51-1.378 1.118-0.343 0.675-0.366 1.508-0.099 2.211 0.203 0.539 0.585 1.004 1.118 1.244 0.386 0.175 0.749 0.18 1.164 0.155 0.659-0.249 1.103-0.569 1.402-1.229 0.312-0.689 0.306-1.52 0.010-2.214-0.227-0.533-0.632-0.963-1.177-1.174-0.34-0.131-0.682-0.149-1.041-0.111z"></path>
            <path fill="#fff" style="fill: var(--color1, #fff)" d="M41.272 11.936c1.246 3.84 2.84 7.575 4.055 11.425l-2.296 0.003c-0.269-0.822-0.529-1.752-0.94-2.512-0.268-0.115-0.586-0.076-0.873-0.073-1.108 0.011-2.215 0.007-3.323-0.012-0.348 0.849-0.628 1.722-0.903 2.596l-2.339-0.002c1.221-3.833 2.678-7.617 3.997-11.42 0.872 0.019 1.749-0.001 2.621-0.005zM39.963 14.775c-0.483 1.374-0.933 2.768-1.463 4.125l1.681-0.001 1.305-0.015c-0.184-0.518-1.25-3.881-1.524-4.109z"></path>
            <path fill="#fff" style="fill: var(--color1, #fff)" d="M89.686 11.961l2.196 0.013c-0.030 2.647-0.007 5.298-0.007 7.945-0.001 1.093 0.11 2.287-0.012 3.365l-0.121 0.083h-2.058l-0.004-4.889c-1.645-0.046-3.303-0.005-4.949-0.003l0.001 4.894-2.209-0.004 0.009-11.401 2.201 0.005 0.001 4.661h4.957l-0.003-4.67z"></path>
            <path fill="#fff" style="fill: var(--color1, #fff)" d="M93.203 15.121c0.729 0.021 1.46 0.013 2.188 0.017-0.009 1.165-0.193 4.384 0.089 5.347 0.111 0.38 0.333 0.728 0.693 0.913 0.541 0.278 1.090 0.117 1.628-0.072 0.238-0.266 0.443-0.515 0.561-0.859 0.386-1.123 0.18-4.006 0.174-5.343 0.694 0.019 1.391 0.004 2.085 0-0.016 0.8-0.003 1.603-0.004 2.404l0.011 5.834c-0.683 0.010-1.365 0.005-2.047-0.015l-0.063-0.074c0.010-0.173 0.012-0.314-0.018-0.487-0.639 0.277-1.209 0.697-1.936 0.712-0.843 0.017-1.758-0.245-2.364-0.851-0.459-0.459-0.739-1.076-0.883-1.703-0.31-1.348-0.127-4.332-0.113-5.824z"></path>
            <path fill="#fff" style="fill: var(--color1, #fff)" d="M63.686 14.891c1.089-0.085 2.224-0.008 3.104 0.725 0.617 0.514 0.816 1.13 0.883 1.897l-1.968-0.002c-0.113-0.21-0.227-0.454-0.404-0.619-0.284-0.262-0.694-0.398-1.078-0.377-0.298 0.016-0.679 0.135-0.865 0.387-0.113 0.154-0.175 0.311-0.132 0.503 0.224 1.009 2.79 0.884 3.607 1.419 0.52 0.341 0.919 0.951 1.034 1.56 0.115 0.623-0.033 1.266-0.408 1.775-0.627 0.865-1.593 1.175-2.599 1.329-0.931 0.056-2.011-0.194-2.756-0.761-0.699-0.532-0.95-1.185-1.045-2.025 0.663 0.001 1.326-0.005 1.989-0.018 0.039 0.125 0.082 0.245 0.145 0.361 0.289 0.533 0.865 0.651 1.4 0.808 0.353-0.081 0.831-0.172 1.082-0.457 0.151-0.172 0.204-0.471 0.14-0.691-0.245-0.843-2.703-0.943-3.556-1.468-0.505-0.311-0.876-0.764-1.011-1.349-0.121-0.53-0.075-1.125 0.223-1.59 0.538-0.84 1.28-1.185 2.216-1.408z"></path>
            <path fill="#fff" style="fill: var(--color1, #fff)" d="M76.93 14.889c0.62-0.050 1.227-0.047 1.831 0.117 0.697 0.189 1.438 0.578 1.79 1.239 0.169 0.316 0.3 0.886 0.186 1.237-0.565 0.122-1.255 0.040-1.835 0.033-0.085-0.287-0.158-0.509-0.391-0.707-0.295-0.247-0.679-0.364-1.062-0.322-0.3 0.031-0.685 0.178-0.852 0.447-0.1 0.16-0.141 0.325-0.078 0.509 0.362 1.068 2.535 0.814 3.38 1.296 0.538 0.308 0.988 0.849 1.141 1.454 0.164 0.65 0.056 1.372-0.319 1.931-0.56 0.835-1.449 1.149-2.388 1.331-0.922 0.114-1.989-0.082-2.759-0.613-0.791-0.545-1.028-1.229-1.206-2.123l1.973-0.015c0.12 0.302 0.229 0.537 0.485 0.746 0.341 0.279 0.745 0.406 1.184 0.347 0.341-0.045 0.676-0.202 0.88-0.487 0.133-0.187 0.2-0.414 0.136-0.642-0.247-0.878-2.426-0.823-3.29-1.288-0.584-0.315-1.046-0.838-1.231-1.481-0.157-0.544-0.091-1.11 0.196-1.599 0.477-0.81 1.353-1.206 2.231-1.409z"></path>
            <path fill="#fff" style="fill: var(--color1, #fff)" d="M52.641 12.857c0.655 0.023 1.315 0.009 1.97 0.011-0.007 0.74 0.004 1.48 0.032 2.219l1.944 0.001-0.004 1.694-1.851-0.001c0.001 1.066-0.243 3.817 0.246 4.641 0.382 0.301 1.145 0.189 1.609 0.183l-0.007 1.404c0.004 0.145 0.004 0.218-0.070 0.344-0.259 0.124-0.524 0.152-0.81 0.154-0.752 0.007-1.791-0.129-2.331-0.693-1.086-1.131-0.739-4.457-0.734-6.035l-1.254 0.002 0.004-1.698 1.249 0.008 0.007-2.236z"></path>
            <path fill="#fff" style="fill: var(--color1, #fff)" d="M69.54 12.848l1.934 0.011c-0.015 0.741 0.016 1.485 0.030 2.226l1.976-0.004-0.003 1.702-1.859-0.001c0.023 1.015-0.226 3.85 0.234 4.617 0.494 0.295 1.113 0.216 1.669 0.215-0.007 0.489 0.003 0.979 0.005 1.469l-0.023 0.186c-0.191 0.202-0.486 0.194-0.747 0.2-0.794 0.019-1.891-0.107-2.467-0.71-1.075-1.125-0.74-4.405-0.731-5.978l-1.323 0.001c-0.017-0.564-0.010-1.129-0.015-1.692l1.318 0.007 0.004-2.249z"></path>
            <path fill="#fff" style="fill: var(--color1, #fff)" d="M27.82 11.582c0.102-0.005 0.2-0.007 0.301 0.008 0.316 0.046 0.628 0.198 0.802 0.476 0.185 0.294 0.21 0.687 0.235 1.028 0.125 1.688 0.032 3.444 0.032 5.138-0 1.384 0.153 3.26-0.104 4.592-0.081 0.419-0.359 0.619-0.691 0.846-0.127 0.015-0.259 0.033-0.387 0.026-0.285-0.016-0.556-0.143-0.74-0.361-0.183-0.216-0.177-0.648-0.193-0.919-0.116-1.942-0.018-3.946-0.016-5.893 0.001-1.107-0.151-3.225 0.082-4.213 0.083-0.353 0.402-0.539 0.68-0.727z"></path>
            <path fill="#fff" style="fill: var(--color1, #fff)" d="M50.243 15.058l0.278-0.003c0.329 0.368 0.166 1.535 0.155 2.018-0.696-0.007-1.354-0.035-1.899 0.471-1.023 0.949-0.678 4.425-0.688 5.82-0.548-0.005-1.617 0.195-2.035-0.154l-0.022-0.346c0.010-2.586-0.055-5.169-0.038-7.754 0.664 0.021 1.33 0.007 1.994 0.003l-0.023 1.142c0.123-0.177 0.246-0.366 0.389-0.527 0.503-0.568 1.186-0.619 1.891-0.669z"></path>
            <path fill="#fff" style="fill: var(--color1, #fff)" d="M57.796 15.092l2.086 0.001 0.005 8.275-2.11-0.003 0.019-8.273z"></path>
            <path fill="#fff" style="fill: var(--color1, #fff)" d="M24.907 14.293c0.342 0.063 0.645 0.192 0.845 0.489 0.308 0.459 0.316 4.955 0.162 5.596-0.084 0.351-0.388 0.522-0.676 0.691-0.329-0.020-0.763-0.049-0.983-0.335-0.327-0.425-0.3-5.203-0.114-5.802 0.108-0.348 0.466-0.495 0.765-0.639z"></path>
            <path fill="#fff" style="fill: var(--color1, #fff)" d="M58.701 11.683c0.62-0.073 1.185 0.36 1.276 0.978s-0.325 1.195-0.939 1.304c-0.414 0.073-0.835-0.084-1.099-0.411s-0.33-0.771-0.171-1.161c0.159-0.389 0.516-0.661 0.933-0.71z"></path>
        </symbol>
        <symbol id="icon-logo-lilac" viewBox="0 0 110 32">
            <path fill="#764191" style="fill: var(--color2, #764191)" d="M16.404 0.241c0.434-0.050 0.936 0.047 1.354 0.174 0.945 0.288 1.714 0.904 2.169 1.784 0.474 0.902 0.564 1.958 0.252 2.927-0.397 1.196-1.248 1.798-2.311 2.351l0.012 3.489c0.759 0.231 1.498 0.494 2.188 0.893 1.585 0.918 2.668 2.467 3.123 4.23 0.48 1.848 0.208 3.812-0.759 5.46-0.887 1.493-2.3 2.596-3.993 3.018-2.211 0.553-4.087-0.046-5.987-1.175-0.84 0.898-1.67 1.806-2.489 2.724 0.366 0.864 0.488 1.771 0.245 2.689-0.237 0.897-0.866 1.666-1.67 2.121-0.901 0.51-1.928 0.602-2.916 0.32-0.981-0.281-1.805-0.888-2.284-1.8-0.472-0.897-0.511-1.949-0.206-2.907 0.348-1.089 1.056-1.759 2.052-2.257 1.072-0.419 1.959-0.281 3.006 0.096 0.872-0.917 1.692-1.881 2.573-2.79-0.968-1.898-1.281-3.515-0.778-5.606-1.095-0.511-2.152-1.107-3.248-1.619-0.586 0.61-1.302 1.028-2.143 1.169-1.003 0.169-2.060-0.105-2.884-0.694-0.817-0.592-1.354-1.494-1.486-2.494-0.135-0.969 0.12-2.037 0.741-2.802 0.64-0.789 1.634-1.266 2.637-1.371 0.986-0.096 1.969 0.205 2.733 0.836 0.976 0.818 1.259 1.835 1.377 3.046 1.039 0.637 2.229 1.128 3.312 1.697 1.409-1.665 2.439-2.191 4.492-2.824l0.001-3.463c-0.367-0.147-0.734-0.326-1.054-0.561-0.81-0.599-1.342-1.502-1.474-2.501-0.121-0.994 0.16-1.995 0.78-2.781 0.678-0.851 1.585-1.238 2.636-1.377zM20.931 17.465c-0.209-2.382-2.302-4.149-4.686-3.955-2.404 0.196-4.19 2.311-3.979 4.714s2.337 4.176 4.739 3.951c2.38-0.224 4.134-2.328 3.925-4.71z"></path>
            <path fill="#764191" style="fill: var(--color2, #764191)" d="M102.108 12.055c0.708 0.001 1.416 0.010 2.124 0.028l-0.004 3.743c0.545-0.424 1.139-0.74 1.83-0.844 0.933-0.141 1.885 0.101 2.637 0.67 0.908 0.687 1.384 1.843 1.523 2.947 0.175 1.402-0.154 2.75-1.019 3.867-0.574 0.554-1.262 0.941-2.056 1.072-1.165 0.191-2.089-0.216-2.998-0.894l-0.004 0.818-2.033-0.004-0.001-11.403zM105.748 16.96c-0.631 0.21-1.071 0.509-1.379 1.117-0.342 0.675-0.365 1.509-0.098 2.212 0.203 0.539 0.585 1.004 1.118 1.244 0.385 0.175 0.749 0.18 1.165 0.155 0.659-0.249 1.102-0.569 1.401-1.229 0.312-0.689 0.306-1.52 0.010-2.214-0.227-0.533-0.631-0.963-1.176-1.174-0.341-0.131-0.682-0.149-1.042-0.111z"></path>
            <path fill="#764191" style="fill: var(--color2, #764191)" d="M41.272 12.034c1.246 3.84 2.84 7.576 4.055 11.426l-2.296 0.002c-0.269-0.822-0.529-1.752-0.939-2.512-0.268-0.115-0.586-0.076-0.873-0.073-1.108 0.011-2.215 0.008-3.323-0.011-0.348 0.848-0.628 1.721-0.903 2.595l-2.339-0.002c1.221-3.833 2.677-7.617 3.996-11.42 0.872 0.019 1.749-0.002 2.622-0.005zM39.963 14.872c-0.483 1.374-0.934 2.768-1.464 4.125l1.681-0.001 1.306-0.014c-0.183-0.517-1.25-3.882-1.524-4.11z"></path>
            <path fill="#764191" style="fill: var(--color2, #764191)" d="M89.685 12.058l2.196 0.013c-0.030 2.647-0.007 5.298-0.007 7.945-0.001 1.093 0.11 2.287-0.012 3.365l-0.121 0.083h-2.058l-0.004-4.889c-1.645-0.046-3.303-0.005-4.949-0.003l0.001 4.894-2.209-0.004 0.009-11.401 2.201 0.005 0.001 4.661h4.957l-0.003-4.67z"></path>
            <path fill="#764191" style="fill: var(--color2, #764191)" d="M93.203 15.219c0.729 0.021 1.46 0.013 2.188 0.017-0.009 1.165-0.193 4.384 0.089 5.347 0.111 0.38 0.333 0.728 0.693 0.913 0.541 0.278 1.090 0.117 1.628-0.072 0.238-0.266 0.443-0.515 0.561-0.859 0.386-1.123 0.18-4.006 0.174-5.343 0.694 0.019 1.391 0.004 2.085 0.001-0.016 0.8-0.003 1.603-0.004 2.404l0.011 5.834c-0.683 0.010-1.365 0.005-2.047-0.015l-0.063-0.074c0.010-0.173 0.013-0.314-0.018-0.487-0.639 0.277-1.209 0.697-1.936 0.712-0.843 0.017-1.758-0.245-2.364-0.851-0.459-0.459-0.739-1.077-0.883-1.703-0.31-1.348-0.127-4.332-0.113-5.824z"></path>
            <path fill="#764191" style="fill: var(--color2, #764191)" d="M63.686 14.989c1.089-0.085 2.224-0.008 3.104 0.725 0.617 0.514 0.816 1.13 0.883 1.897l-1.968-0.002c-0.113-0.21-0.227-0.455-0.404-0.619-0.284-0.262-0.694-0.398-1.078-0.377-0.298 0.016-0.679 0.135-0.865 0.387-0.113 0.154-0.175 0.311-0.132 0.503 0.224 1.009 2.79 0.884 3.607 1.419 0.52 0.341 0.919 0.951 1.034 1.56 0.115 0.623-0.033 1.266-0.409 1.775-0.627 0.865-1.593 1.175-2.599 1.329-0.931 0.056-2.011-0.194-2.756-0.761-0.699-0.532-0.95-1.185-1.045-2.025 0.663 0.001 1.326-0.005 1.989-0.018 0.039 0.125 0.082 0.246 0.145 0.361 0.289 0.533 0.865 0.651 1.4 0.808 0.353-0.081 0.831-0.172 1.082-0.457 0.151-0.172 0.204-0.471 0.14-0.691-0.245-0.843-2.703-0.943-3.556-1.467-0.505-0.311-0.876-0.764-1.011-1.349-0.121-0.53-0.075-1.125 0.223-1.59 0.538-0.84 1.28-1.185 2.216-1.408z"></path>
            <path fill="#764191" style="fill: var(--color2, #764191)" d="M76.93 14.987c0.62-0.050 1.227-0.047 1.831 0.117 0.697 0.189 1.438 0.578 1.79 1.238 0.169 0.317 0.3 0.886 0.186 1.237-0.565 0.122-1.255 0.039-1.835 0.033-0.085-0.287-0.158-0.509-0.391-0.707-0.295-0.247-0.679-0.364-1.062-0.322-0.3 0.031-0.685 0.178-0.852 0.447-0.1 0.16-0.141 0.324-0.078 0.509 0.362 1.068 2.535 0.814 3.38 1.297 0.538 0.308 0.988 0.849 1.141 1.454 0.164 0.65 0.056 1.372-0.319 1.931-0.56 0.835-1.449 1.149-2.388 1.331-0.922 0.114-1.989-0.082-2.759-0.613-0.791-0.545-1.028-1.229-1.206-2.123l1.973-0.015c0.12 0.302 0.229 0.537 0.485 0.746 0.341 0.279 0.745 0.406 1.184 0.347 0.341-0.045 0.676-0.202 0.88-0.487 0.133-0.187 0.2-0.414 0.136-0.642-0.247-0.878-2.426-0.823-3.29-1.288-0.584-0.315-1.047-0.838-1.231-1.481-0.157-0.544-0.091-1.11 0.196-1.599 0.477-0.81 1.353-1.206 2.231-1.408z"></path>
            <path fill="#764191" style="fill: var(--color2, #764191)" d="M52.641 12.955c0.655 0.023 1.315 0.009 1.97 0.011-0.007 0.74 0.004 1.48 0.032 2.219l1.944 0.001-0.004 1.694-1.851-0.001c0.001 1.066-0.243 3.817 0.246 4.641 0.382 0.301 1.145 0.189 1.609 0.183l-0.007 1.404c0.004 0.145 0.004 0.218-0.070 0.344-0.259 0.124-0.524 0.152-0.81 0.154-0.752 0.007-1.791-0.129-2.331-0.693-1.086-1.131-0.739-4.457-0.734-6.035l-1.254 0.002 0.004-1.698 1.249 0.008 0.007-2.236z"></path>
            <path fill="#764191" style="fill: var(--color2, #764191)" d="M69.54 12.946l1.934 0.011c-0.015 0.741 0.016 1.485 0.030 2.226l1.976-0.004-0.003 1.702-1.859-0.001c0.023 1.015-0.226 3.85 0.234 4.617 0.494 0.295 1.113 0.216 1.669 0.215-0.007 0.489 0.003 0.979 0.005 1.469l-0.023 0.186c-0.191 0.202-0.486 0.194-0.747 0.2-0.794 0.019-1.891-0.107-2.467-0.71-1.075-1.125-0.74-4.405-0.731-5.978l-1.323 0.001c-0.017-0.563-0.010-1.129-0.015-1.692l1.318 0.007 0.004-2.249z"></path>
            <path fill="#764191" style="fill: var(--color2, #764191)" d="M27.82 11.679c0.102-0.005 0.2-0.007 0.302 0.008 0.316 0.046 0.628 0.198 0.802 0.476 0.185 0.294 0.21 0.687 0.235 1.028 0.125 1.688 0.032 3.444 0.032 5.138-0 1.384 0.153 3.26-0.104 4.592-0.081 0.419-0.358 0.619-0.691 0.846-0.127 0.015-0.259 0.033-0.387 0.026-0.285-0.016-0.556-0.143-0.74-0.361-0.183-0.216-0.177-0.648-0.193-0.919-0.116-1.942-0.018-3.946-0.016-5.893 0.001-1.107-0.151-3.225 0.082-4.213 0.083-0.353 0.402-0.539 0.68-0.727z"></path>
            <path fill="#764191" style="fill: var(--color2, #764191)" d="M50.244 15.156l0.278-0.003c0.329 0.368 0.166 1.535 0.155 2.018-0.696-0.007-1.354-0.035-1.899 0.471-1.023 0.949-0.678 4.425-0.688 5.82-0.548-0.005-1.617 0.195-2.035-0.154l-0.022-0.346c0.010-2.586-0.055-5.169-0.038-7.754 0.664 0.021 1.33 0.007 1.994 0.003l-0.023 1.142c0.123-0.177 0.245-0.366 0.388-0.527 0.503-0.568 1.186-0.619 1.891-0.669z"></path>
            <path fill="#764191" style="fill: var(--color2, #764191)" d="M57.796 15.19l2.086 0.001 0.005 8.275-2.11-0.003 0.019-8.273z"></path>
            <path fill="#764191" style="fill: var(--color2, #764191)" d="M24.906 14.391c0.343 0.063 0.645 0.192 0.845 0.489 0.308 0.459 0.316 4.955 0.162 5.596-0.084 0.351-0.388 0.522-0.675 0.691-0.33-0.020-0.763-0.049-0.983-0.335-0.327-0.425-0.3-5.203-0.114-5.802 0.108-0.348 0.466-0.495 0.765-0.64z"></path>
            <path fill="#764191" style="fill: var(--color2, #764191)" d="M58.701 11.781c0.62-0.073 1.185 0.36 1.276 0.978s-0.325 1.195-0.939 1.304c-0.414 0.073-0.835-0.084-1.099-0.411s-0.33-0.771-0.171-1.161c0.159-0.389 0.516-0.661 0.933-0.71z"></path>
        </symbol>
        <symbol id="icon-logo-small" viewBox="0 0 32 32">
            <path fill="#fff" style="fill: var(--color1, #fff)" d="M17.284 3.195c0.38-0.041 0.819 0.039 1.185 0.142 0.827 0.235 1.5 0.737 1.898 1.455 0.415 0.736 0.494 1.596 0.221 2.387-0.347 0.976-1.092 1.466-2.022 1.917l0.010 2.846c0.665 0.189 1.311 0.403 1.915 0.728 1.387 0.749 2.336 2.013 2.733 3.45 0.42 1.507 0.181 3.108-0.665 4.452-0.776 1.218-2.014 2.117-3.495 2.462-1.935 0.451-3.576-0.038-5.24-0.959-0.735 0.732-1.462 1.473-2.179 2.222 0.32 0.704 0.427 1.444 0.214 2.192-0.208 0.732-0.758 1.359-1.462 1.73-0.789 0.416-1.688 0.492-2.552 0.261-0.858-0.229-1.58-0.724-1.999-1.468-0.413-0.732-0.448-1.59-0.18-2.371 0.305-0.888 0.925-1.435 1.797-1.841 0.939-0.342 1.715-0.23 2.631 0.078 0.763-0.748 1.481-1.533 2.252-2.275-0.847-1.548-1.121-2.866-0.681-4.572-0.959-0.417-1.884-0.903-2.843-1.321-0.513 0.497-1.139 0.838-1.875 0.954-0.878 0.138-1.803-0.085-2.525-0.566-0.715-0.483-1.185-1.218-1.301-2.033-0.119-0.791 0.105-1.662 0.648-2.286 0.56-0.644 1.43-1.032 2.309-1.118 0.863-0.078 1.724 0.167 2.392 0.681 0.855 0.667 1.101 1.496 1.205 2.484 0.909 0.52 1.951 0.92 2.899 1.384 1.233-1.358 2.134-1.786 3.931-2.303l0.002-2.824c-0.322-0.12-0.643-0.266-0.923-0.458-0.709-0.489-1.175-1.225-1.29-2.040-0.106-0.811 0.139-1.627 0.682-2.268 0.594-0.694 1.387-1.010 2.307-1.123zM21.246 17.242c-0.183-1.943-2.014-3.383-4.1-3.225-2.104 0.16-3.667 1.885-3.483 3.845s2.046 3.405 4.148 3.221c2.083-0.183 3.618-1.898 3.435-3.841z"></path>
            <path fill="#fff" style="fill: var(--color1, #fff)" d="M27.276 12.524c0.089-0.004 0.175-0.005 0.264 0.007 0.277 0.037 0.549 0.162 0.702 0.388 0.162 0.24 0.184 0.56 0.206 0.838 0.11 1.377 0.028 2.809 0.028 4.19-0 1.128 0.134 2.658-0.091 3.745-0.071 0.341-0.314 0.505-0.605 0.69-0.111 0.013-0.227 0.027-0.339 0.021-0.25-0.013-0.486-0.117-0.648-0.294-0.16-0.176-0.155-0.529-0.169-0.749-0.102-1.584-0.016-3.218-0.014-4.806 0.001-0.903-0.132-2.63 0.071-3.436 0.073-0.288 0.352-0.439 0.595-0.593z"></path>
            <path fill="#fff" style="fill: var(--color1, #fff)" d="M24.726 14.736c0.3 0.051 0.565 0.156 0.74 0.399 0.269 0.374 0.277 4.041 0.142 4.564-0.074 0.286-0.339 0.426-0.591 0.563-0.288-0.016-0.668-0.040-0.86-0.273-0.287-0.346-0.263-4.243-0.1-4.732 0.095-0.284 0.408-0.404 0.67-0.522z"></path>
        </symbol>
        <symbol id="icon-menu-btn" viewBox="0 0 32 32">
            <path fill="#fff" style="fill: var(--color1, #fff)" d="M5.333 8h21.333v2.667h-21.333v-2.667zM10.667 14.667h16v2.667h-16v-2.667zM17.333 21.333h9.333v2.667h-9.333v-2.667z"></path>
        </symbol>
        <symbol id="icon-right-arrow" viewBox="0 0 32 32">
            <path fill="#fff" style="fill: var(--color1, #fff)" d="M7.381 29.181c0.216 0.112 0.458 0.164 0.701 0.149s0.477-0.096 0.677-0.234l17.333-12c0.177-0.123 0.322-0.287 0.422-0.477s0.152-0.403 0.152-0.619-0.052-0.428-0.152-0.619c-0.1-0.191-0.245-0.355-0.422-0.477l-17.333-12c-0.2-0.139-0.434-0.221-0.677-0.237s-0.486 0.036-0.702 0.149c-0.216 0.113-0.396 0.283-0.522 0.492s-0.192 0.448-0.191 0.691v24c-0 0.243 0.067 0.482 0.192 0.69s0.307 0.378 0.522 0.491zM9.333 6.545l13.657 9.455-13.657 9.455v-18.909z"></path>
        </symbol>
        <symbol id="icon-right-arrow-alt" viewBox="0 0 31 32">
            <path fill="#fff" style="fill: var(--color1, #fff)" d="M14.455 22.612l1.81 1.81 8.585-8.585-8.585-8.585-1.81 1.81 5.495 5.495h-12.27v2.56h12.27l-5.495 5.495z"></path>
        </symbol>
        <symbol id="icon-search" viewBox="0 0 32 32">
            <path fill="#fff" style="fill: var(--color1, #fff)" d="M13.333 24c2.367-0.001 4.665-0.793 6.529-2.251l5.861 5.861 1.885-1.885-5.861-5.861c1.459-1.864 2.251-4.163 2.252-6.531 0-5.881-4.785-10.667-10.667-10.667s-10.667 4.785-10.667 10.667c0 5.881 4.785 10.667 10.667 10.667zM13.333 5.333c4.412 0 8 3.588 8 8s-3.588 8-8 8c-4.412 0-8-3.588-8-8s3.588-8 8-8z"></path>
        </symbol>
        <symbol id="icon-Star" viewBox="0 0 32 32">
            <path fill="#fff" style="fill: var(--color1, #fff)" d="M14.513 2.109c0.55-1.306 2.423-1.306 2.973 0l3.246 7.71c0.232 0.551 0.756 0.927 1.358 0.975l8.426 0.667c1.428 0.113 2.006 1.873 0.919 2.793l-6.419 5.432c-0.458 0.388-0.659 0.997-0.519 1.577l1.961 8.123c0.332 1.376-1.183 2.464-2.405 1.727l-7.213-4.353c-0.515-0.311-1.163-0.311-1.679 0l-7.214 4.353c-1.222 0.737-2.738-0.35-2.405-1.727l1.961-8.123c0.14-0.58-0.060-1.189-0.519-1.577l-6.42-5.432c-1.088-0.92-0.509-2.68 0.919-2.793l8.426-0.667c0.602-0.048 1.126-0.424 1.358-0.975l3.246-7.71z"></path>
        </symbol>
        <symbol id="icon-Star-lilac" viewBox="0 0 32 32">
            <path fill="#764191" style="fill: var(--color2, #764191)" d="M14.513 2.109c0.55-1.306 2.423-1.306 2.973 0l3.246 7.71c0.232 0.551 0.756 0.927 1.358 0.975l8.426 0.667c1.428 0.113 2.006 1.873 0.919 2.793l-6.419 5.432c-0.459 0.388-0.659 0.997-0.519 1.577l1.961 8.123c0.332 1.376-1.183 2.464-2.405 1.727l-7.214-4.353c-0.515-0.311-1.163-0.311-1.678 0l-7.214 4.353c-1.222 0.737-2.738-0.35-2.405-1.727l1.961-8.123c0.14-0.58-0.060-1.189-0.519-1.577l-6.42-5.432c-1.088-0.92-0.509-2.68 0.919-2.793l8.426-0.667c0.602-0.048 1.126-0.424 1.358-0.975l3.246-7.71z"></path>
        </symbol>
        <symbol id="icon-Youtube" viewBox="0 0 31 32">
            <path fill="#fff" style="fill: var(--color1, #fff)" d="M27.639 9.981c-0.146-0.541-0.431-1.034-0.826-1.431s-0.888-0.683-1.429-0.83c-2.004-0.55-10.024-0.559-10.024-0.559s-8.018-0.009-10.024 0.517c-0.54 0.154-1.032 0.444-1.428 0.842s-0.683 0.892-0.833 1.433c-0.529 2.004-0.534 6.162-0.534 6.162s-0.005 4.178 0.52 6.162c0.294 1.097 1.158 1.964 2.257 2.259 2.025 0.55 10.022 0.559 10.022 0.559s8.019 0.009 10.024-0.516c0.541-0.147 1.034-0.432 1.431-0.828s0.683-0.888 0.831-1.429c0.53-2.003 0.534-6.159 0.534-6.159s0.026-4.179-0.521-6.184zM12.795 19.968l0.006-7.68 6.665 3.846-6.671 3.834z"></path>
        </symbol>
    </defs>
</svg>