<svg width="36" height="36" viewBox="0 0 36 36" fill="none" xmlns="http://www.w3.org/2000/svg">
<rect width="36" height="36" rx="18" fill="#F9F9F9" fill-opacity="0.47"/>
<path d="M19.0443 4.01154C19.4199 3.96831 19.8552 4.05265 20.2171 4.16291C21.0355 4.41226 21.7003 4.94577 22.095 5.70783C22.5053 6.48934 22.5844 7.40384 22.3138 8.24396C21.9702 9.27966 21.2338 9.8004 20.3138 10.2791L20.3236 13.3006C20.9812 13.5011 21.621 13.7289 22.2181 14.075C23.5905 14.8706 24.5296 16.2117 24.9232 17.7381C25.3392 19.3388 25.1022 21.0399 24.265 22.4666C23.497 23.7596 22.2727 24.7151 20.807 25.0809C18.8922 25.5593 17.2681 25.0408 15.6224 24.0623C14.8949 24.8401 14.1764 25.6268 13.4671 26.4217C13.7842 27.1698 13.8884 27.9549 13.678 28.7498C13.4724 29.527 12.9284 30.1931 12.2318 30.5867C11.4513 31.0285 10.562 31.1089 9.70637 30.8641C8.85718 30.6211 8.14297 30.0949 7.72785 29.3045C7.31928 28.5272 7.28425 27.6158 7.54914 26.786C7.8505 25.843 8.46456 25.2619 9.32746 24.8309C10.2563 24.4676 11.0243 24.5873 11.931 24.9139C12.6858 24.1196 13.3969 23.2852 14.1595 22.4979C13.3213 20.8541 13.0499 19.4537 13.4857 17.6424C12.5368 17.1994 11.6216 16.6838 10.6722 16.2401C10.1648 16.7683 9.54408 17.1302 8.81574 17.2528C7.94726 17.3989 7.03154 17.1621 6.31769 16.6522C5.61044 16.1397 5.14483 15.3589 5.03058 14.493C4.91333 13.6534 5.1345 12.7279 5.67219 12.0653C6.22666 11.3819 7.08747 10.9698 7.95637 10.8787C8.81022 10.7956 9.66218 11.056 10.3236 11.6024C11.1692 12.3106 11.4134 13.1907 11.5159 14.2401C12.4159 14.7918 13.4464 15.2171 14.3841 15.7098C15.6041 14.2675 16.4956 13.8126 18.2737 13.2645L18.2757 10.2654C17.9573 10.138 17.6391 9.98306 17.3616 9.77912C16.6602 9.2601 16.2 8.47827 16.0862 7.6131C15.9811 6.75222 16.2237 5.88467 16.7611 5.20392C17.3484 4.46717 18.1336 4.13206 19.0443 4.01154ZM22.9652 18.9285C22.7842 16.8656 20.9714 15.3359 18.9075 15.5037C16.8251 15.6732 15.2787 17.5057 15.4612 19.5867C15.644 21.6683 17.4857 23.2031 19.5657 23.0076C21.6274 22.8133 23.1461 20.9913 22.9652 18.9285Z" fill="#764191"/>
<path d="M28.7282 14.0029C28.8196 13.9988 28.9083 13.9976 28.9992 14.0096C29.2834 14.0474 29.5634 14.1734 29.7199 14.4024C29.8859 14.6454 29.9087 14.9689 29.9314 15.2504C30.0441 16.6434 29.9604 18.0926 29.96 19.4905C29.9596 20.6322 30.0975 22.1803 29.8665 23.2797C29.7939 23.6253 29.5442 23.7905 29.2453 23.9775C29.1314 23.9901 29.0122 24.0046 28.8974 23.9986C28.6408 23.9853 28.3978 23.8804 28.2319 23.7007C28.0679 23.5228 28.0726 23.1657 28.0581 22.9426C27.9538 21.3402 28.042 19.6865 28.0436 18.0793C28.0445 17.166 27.9077 15.4176 28.1169 14.6026C28.1917 14.311 28.478 14.1582 28.7282 14.0029Z" fill="#764191"/>
<path d="M26.45 16C26.6205 16.0559 26.7715 16.1699 26.8709 16.4332C27.0242 16.8396 27.0283 20.8203 26.9515 21.3885C26.9095 21.6991 26.7584 21.8505 26.615 22C26.4509 21.9825 26.2352 21.9566 26.1255 21.7036C25.9624 21.3277 25.9759 17.0968 26.0688 16.5663C26.1227 16.258 26.301 16.1277 26.45 16Z" fill="#764191"/>
</svg>
